<svg width="18" height="20" xmlns="http://www.w3.org/2000/svg" fill="none" viewBox="0 0 18 20" id="calculator"><path d="M16.5 0h-15C.75 0 .25.5.25 1.25v17.5C.25 19.5.75 20 1.5 20h15c.75 0 1.25-.5 1.25-1.25V1.25C17.75.5 17.25 0 16.5 0zM5.25 15a1.25 1.25 0 11-2.5 0 1.25 1.25 0 012.5 0zm0-5a1.25 1.25 0 11-2.5 0 1.25 1.25 0 012.5 0zm5 5a1.25 1.25 0 11-2.5 0 1.25 1.25 0 012.5 0zm0-5a1.25 1.25 0 11-2.5 0 1.25 1.25 0 012.5 0zm5 5.25a1 1 0 01-1 1h-.5a1 1 0 01-1-1v-5.5a1 1 0 011-1h.5a1 1 0 011 1v5.5zm0-10a1 1 0 01-1 1H3.75a1 1 0 01-1-1V3.5a1 1 0 011-1h10.5a1 1 0 011 1v1.75z" fill="#11C095"></path></svg>