 <svg
                      
                      width="12"
                      height="12"
                      viewBox="0 0 12 12"
                      fill="none"
                      xmlns="http://www.w3.org/2000/svg"
                    >
                      <path
                        d="M3.375 8.00009C2.67881 8.00009 2.01113 7.71914 1.51884 7.21904C1.02656 6.71893 0.75 6.04065 0.75 5.3334C0.75 4.62614 1.02656 3.94786 1.51884 3.44776C2.01113 2.94765 2.67881 2.6667 3.375 2.6667C3.375 1.95945 3.65156 1.28116 4.14384 0.781058C4.63613 0.280955 5.30381 0 6 0C6.69619 0 7.36387 0.280955 7.85616 0.781058C8.34844 1.28116 8.625 1.95945 8.625 2.6667C9.32119 2.6667 9.98887 2.94765 10.4812 3.44776C10.9734 3.94786 11.25 4.62614 11.25 5.3334C11.25 6.04065 10.9734 6.71893 10.4812 7.21904C9.98887 7.71914 9.32119 8.00009 8.625 8.00009H6.65625V4.66672C6.65625 4.48991 6.58711 4.32034 6.46404 4.19531C6.34097 4.07029 6.17405 4.00005 6 4.00005C5.82595 4.00005 5.65903 4.07029 5.53596 4.19531C5.41289 4.32034 5.34375 4.48991 5.34375 4.66672V8.00009H3.375ZM5.34375 8.00009H6.65625V9.72412L7.50478 8.86211C7.62855 8.74066 7.79432 8.67347 7.96639 8.67499C8.13845 8.67651 8.30305 8.74662 8.42472 8.87023C8.5464 8.99383 8.61542 9.16104 8.61691 9.33584C8.61841 9.51064 8.55226 9.67905 8.43272 9.80478L6.46397 11.8048C6.3409 11.9298 6.17401 12 6 12C5.82599 12 5.6591 11.9298 5.53603 11.8048L3.56728 9.80478C3.5046 9.74328 3.45461 9.66972 3.42021 9.58838C3.38582 9.50705 3.36772 9.41957 3.36696 9.33104C3.3662 9.24252 3.38281 9.15474 3.4158 9.0728C3.4488 8.99087 3.49753 8.91644 3.55915 8.85384C3.62076 8.79125 3.69404 8.74174 3.77469 8.70822C3.85534 8.6747 3.94175 8.65783 4.02889 8.6586C4.11602 8.65937 4.20214 8.67776 4.2822 8.7127C4.36227 8.74764 4.43468 8.79843 4.49522 8.86211L5.34375 9.72412V8.00009Z"
                        fill="#1971E4"
                      />
                    </svg>