  <svg
                className="mr-2"
                width="14"
                height="16"
                viewBox="0 0 14 16"
                fill="none"
                xmlns="http://www.w3.org/2000/svg"
              >
                <path
                  d="M13 7C11.3567 7 8.91144 7.80353 8 9.02747V1C8 0.44775 7.55273 0 7 0C6.44727 0 6 0.44775 6 1V4.02747C5.08856 2.80353 2.64331 2 1 2H0V4C0 6.76141 3.23859 9 6 9V15.1265C6 15.6787 6.44727 16.1265 7 16.1265C7.55273 16.1265 8 15.6787 8 15.1265V14C10.7614 14 14 11.7614 14 9V7H13Z"
                  fill="#181818"
                />
              </svg>