<svg
                className="mr-2"
                width="19"
                height="16"
                viewBox="0 0 19 16"
                fill="none"
                xmlns="http://www.w3.org/2000/svg"
              >
                <path
                  d="M9.36507 0.385804C9.16771 0.176496 8.83486 0.176496 8.6375 0.385804L4.13865 5.15698C3.83789 5.47595 4.06403 6 4.50243 6H6.23827C6.51441 6 6.73827 6.22386 6.73827 6.5V15C6.73827 15.6 7.19087 16 7.86978 16H10.1328C10.8117 16 11.2643 15.6 11.2643 15V6.5C11.2643 6.22386 11.4882 6 11.7643 6H13.5001C13.9385 6 14.1647 5.47595 13.8639 5.15698L9.36507 0.385804Z"
                  fill="#181818"
                />
                <path
                  d="M3.34374 11H1.08073C0.401821 11 -0.0507812 11.4 -0.0507812 12V15C-0.0507812 15.6 0.401821 16 1.08073 16H3.34374C4.02264 16 4.47525 15.6 4.47525 15V12C4.47525 11.4 4.02264 11 3.34374 11Z"
                  fill="#181818"
                />
                <path
                  d="M16.9219 8H14.6589C13.9799 8 13.5273 8.4 13.5273 9V15C13.5273 15.6 13.9799 16 14.6589 16H16.9219C17.6008 16 18.0534 15.6 18.0534 15V9C18.0534 8.4 17.6008 8 16.9219 8Z"
                  fill="#181818"
                />
              </svg>