 <svg
                className="mr-2"
                width="17"
                height="16"
                viewBox="0 0 17 16"
                fill="none"
                xmlns="http://www.w3.org/2000/svg"
              >
                <path
                  fill-rule="evenodd"
                  clip-rule="evenodd"
                  d="M3.5 1.5C3.5 0.947715 3.94772 0.5 4.5 0.5C5.05228 0.5 5.5 0.947715 5.5 1.5V2.5H11.5V1.5C11.5 0.947715 11.9477 0.5 12.5 0.5C13.0523 0.5 13.5 0.947715 13.5 1.5V2.5H14.5C15.6046 2.5 16.5 3.39543 16.5 4.5V13.5C16.5 14.6046 15.6046 15.5 14.5 15.5H2.5C1.39543 15.5 0.5 14.6046 0.5 13.5V4.5C0.5 3.39543 1.39543 2.5 2.5 2.5H3.5V1.5ZM2.5 5.5C2.5 4.94772 2.94772 4.5 3.5 4.5H13.5C14.0523 4.5 14.5 4.94772 14.5 5.5C14.5 6.05228 14.0523 6.5 13.5 6.5H3.5C2.94772 6.5 2.5 6.05228 2.5 5.5Z"
                  fill="#181818"
                />
              </svg>