<svg
                className="mr-2"
                width="16"
                height="16"
                viewBox="0 0 16 16"
                fill="none"
                xmlns="http://www.w3.org/2000/svg"
              >
                <path
                  fill-rule="evenodd"
                  clip-rule="evenodd"
                  d="M14.2741 14.5553C14.5788 14.2506 14.75 13.8372 14.75 13.4062V8.53125C14.75 8.30575 14.7032 8.08509 14.6148 7.88228L5.58454 15.0312H13.125C13.556 15.0312 13.9693 14.86 14.2741 14.5553ZM12.7188 4.94416L13.6253 4.21892C14.0566 3.87391 14.6859 3.94383 15.0309 4.37509C15.3759 4.80635 15.306 5.43565 14.8747 5.78066L2.37473 15.7807C1.94347 16.1257 1.31418 16.0557 0.969168 15.6245C0.624158 15.1932 0.69408 14.5639 1.12534 14.2189L1.77644 13.698C1.75899 13.6024 1.75004 13.5048 1.75004 13.4062V8.53125C1.75004 8.10027 1.92124 7.68695 2.22599 7.3822C2.53073 7.07746 2.94406 6.90625 3.37504 6.90625H3.78129V4.46875C3.78129 3.28356 4.2521 2.14692 5.09015 1.30887C5.92821 0.470814 7.06485 0 8.25004 0C9.43522 0 10.5719 0.470814 11.4099 1.30887C12.248 2.14692 12.7188 3.28356 12.7188 4.46875V4.94416ZM10.2813 6.89416V4.46875C10.2813 3.93003 10.0673 3.41337 9.68635 3.03244C9.30541 2.65151 8.78876 2.4375 8.25004 2.4375C7.71131 2.4375 7.19466 2.65151 6.81372 3.03244C6.43279 3.41337 6.21879 3.93003 6.21879 4.46875V6.90625H10.2662L10.2813 6.89416Z"
                  fill="#181818"
                />
              </svg>