    <svg
              width="43"
              height="59"
              viewBox="0 0 43 59"
              fill="none"
              xmlns="http://www.w3.org/2000/svg"
            >
              <path
                fill-rule="evenodd"
                clip-rule="evenodd"
                d="M21.7571 1C18.7044 1 15.4626 2.04176 13.2599 5.07544C11.8918 6.95955 10.9182 9.71869 10.3996 13.3815C7.94882 14.2293 6.35689 15.7527 5.55716 17.884C4.77225 19.9759 4.69873 22.2467 5.37405 24.6986C4.13179 26.7633 3.44105 28.5548 3.25516 30.0593C2.96062 32.4431 3.39135 35.4833 3.99225 37.5185C4.97447 40.8452 6.66308 43.8723 8.89315 45.9991C10.995 48.0037 13.5723 49.2204 16.506 49.2204H26.5323C30.5819 49.2204 34.0603 45.7567 36.2127 43.2111C38.5955 40.3929 39.9275 37.0845 39.9275 30.689C39.9275 27.3165 38.7894 24.6873 36.5653 22.7735C37.0932 17.4144 36.3438 13.6988 34.5644 11.5151C33.1868 9.82442 31.7215 8.69452 30.1917 8.08506C29.8582 5.32911 28.6572 3.39828 26.6978 2.21687C25.1618 1.29075 23.6424 1 21.7571 1Z"
                fill="#ACE0A2"
                stroke="#54894A"
                stroke-width="2"
              />
              <path
                d="M21.4766 57.2424V26.0156"
                stroke="#54894A"
                stroke-width="2"
                stroke-linecap="round"
              />
              <path
                d="M1 57.4648C7.80214 57.4648 14.8254 57.4648 22.0696 57.4648C29.3139 57.4648 35.9451 57.4648 41.9632 57.4648"
                stroke="#54894A"
                stroke-width="2"
                stroke-linecap="round"
              />
              <path
                d="M26.5343 28.252L21.4766 34.4722"
                stroke="#54894A"
                stroke-width="2"
                stroke-linecap="round"
              />
              <path
                d="M15.7077 32.7422L21.4841 37.742V44.9183L28.5469 36.2674"
                stroke="#54894A"
                stroke-width="2"
                stroke-linecap="round"
              />
            </svg>
         