  <svg
                
                width="41"
                height="56"
                viewBox="0 0 41 56"
                fill="none"
                xmlns="http://www.w3.org/2000/svg"
              >
                <path
                  fill-rule="evenodd"
                  clip-rule="evenodd"
                  d="M20.7642 1C17.8579 1 14.7714 1.99183 12.6743 4.88012C11.3718 6.67393 10.4448 9.30084 9.95109 12.7881C7.61776 13.5953 6.10212 15.0457 5.34072 17.0749C4.59343 19.0664 4.52343 21.2285 5.16638 23.5628C3.98366 25.5286 3.32602 27.2342 3.14904 28.6666C2.86862 30.9362 3.27871 33.8307 3.85081 35.7683C4.78595 38.9356 6.39363 41.8176 8.51683 43.8425C10.5179 45.751 12.9717 46.9094 15.7648 46.9094H25.3106C29.1662 46.9094 32.4778 43.6117 34.5271 41.1881C36.7957 38.505 38.0638 35.3551 38.0638 29.2662C38.0638 26.0552 36.9803 23.5521 34.8628 21.73C35.3654 16.6277 34.6519 13.0902 32.9578 11.0112C31.6462 9.40151 30.2511 8.32576 28.7947 7.7455C28.4771 5.12163 27.3337 3.28334 25.4682 2.15855C24.0058 1.27682 22.5592 1 20.7642 1Z"
                  fill="#ACE0A2"
                  stroke="#54894A"
                  stroke-width="2"
                />
                <path
                  d="M20.4961 54.5466V24.8164"
                  stroke="#54894A"
                  stroke-width="2"
                  stroke-linecap="round"
                />
                <path
                  d="M1 54.7578C7.47615 54.7578 14.1628 54.7578 21.0599 54.7578C27.9569 54.7578 34.2703 54.7578 40 54.7578"
                  stroke="#54894A"
                  stroke-width="2"
                  stroke-linecap="round"
                />
                <path
                  d="M25.3115 26.9453L20.4961 32.8674"
                  stroke="#54894A"
                  stroke-width="2"
                  stroke-linecap="round"
                />
                <path
                  d="M15.0027 31.2207L20.5023 35.9809V42.8133L27.2266 34.577"
                  stroke="#54894A"
                  stroke-width="2"
                  stroke-linecap="round"
                />
              </svg>