<svg width="12" height="6" viewBox="0 0 12 6" fill="none" xmlns="http://www.w3.org/2000/svg">
<path fill-rule="evenodd" clip-rule="evenodd" d="M0.75 1.40625C0.75 1.2322 0.829018 1.06528 0.96967 0.942211C1.11032 0.819141 1.30109 0.75 1.5 0.75H10.5C10.6989 0.75 10.8897 0.819141 11.0303 0.942211C11.171 1.06528 11.25 1.2322 11.25 1.40625C11.25 1.5803 11.171 1.74722 11.0303 1.87029C10.8897 1.99336 10.6989 2.0625 10.5 2.0625H1.5C1.30109 2.0625 1.11032 1.99336 0.96967 1.87029C0.829018 1.74722 0.75 1.5803 0.75 1.40625ZM0.75 5.34375C0.75 5.1697 0.829018 5.00278 0.96967 4.87971C1.11032 4.75664 1.30109 4.6875 1.5 4.6875H10.5C10.6989 4.6875 10.8897 4.75664 11.0303 4.87971C11.171 5.00278 11.25 5.1697 11.25 5.34375C11.25 5.5178 11.171 5.68472 11.0303 5.80779C10.8897 5.93086 10.6989 6 10.5 6H1.5C1.30109 6 1.11032 5.93086 0.96967 5.80779C0.829018 5.68472 0.75 5.5178 0.75 5.34375Z" fill="#007AFF"/>
</svg>
