<svg width="12" height="12" viewBox="0 0 12 12" fill="none" xmlns="http://www.w3.org/2000/svg">
<path fill-rule="evenodd" clip-rule="evenodd" d="M6 12C9.31371 12 12 9.31371 12 6C12 2.68629 9.31371 0 6 0C2.68629 0 0 2.68629 0 6C0 9.31371 2.68629 12 6 12ZM7 3.00027C7 3.46152 6.6625 3.80731 6.115 3.80731C5.5675 3.80731 5.23375 3.46152 5.23375 3.00027C5.23375 2.53902 5.57125 2.19043 6.115 2.19043C6.6625 2.19043 7 2.53902 7 3.00027ZM8.305 8.99985H4V7.9161H5.4925V5.37735H4V4.2936H6.8425V7.9161H8.305V8.99985Z" fill="#B3B3B3"/>
</svg>
