<svg width="11" height="13" fill="none" xmlns="http://www.w3.org/2000/svg"><path d="M6.136 9.818c0 1.273.796 2.341 2.273 2.341 1.455 0 2.25-1.068 2.25-2.34v-.614c0-1.273-.773-2.341-2.25-2.341-1.454 0-2.273 1.068-2.273 2.34v.614zM.341 3.16c0 1.273.795 2.341 2.273 2.341 1.454 0 2.25-1.068 2.25-2.34v-.615c0-1.272-.773-2.34-2.25-2.34C1.159.205.34 1.273.34 2.545v.614zM.773 12h1.295l8-11.636H8.773L.773 12zm6.522-2.795c0-.705.319-1.364 1.114-1.364.818 0 1.091.659 1.091 1.364v.613c0 .705-.295 1.364-1.09 1.364-.82 0-1.115-.66-1.115-1.364v-.613zM1.5 2.545c0-.704.318-1.363 1.114-1.363.818 0 1.09.659 1.09 1.363v.614c0 .705-.295 1.364-1.09 1.364-.819 0-1.114-.66-1.114-1.364v-.614z" fill="#B3B3B3"/></svg>